<?xml version="1.0" encoding="utf-8"?>
<!-- Generator: Adobe Illustrator 24.1.2, SVG Export Plug-In . SVG Version: 6.00 Build 0)  -->
<svg version="1.1" id="Calque_2_1_" xmlns="http://www.w3.org/2000/svg" xmlns:xlink="http://www.w3.org/1999/xlink" x="0px"
	 y="0px" viewBox="0 0 479 91" style="enable-background:new 0 0 479 91;" xml:space="preserve">
<style type="text/css">
	.st0{fill:#3DC1D3;}
	.st1{clip-path:url(#SVGID_2_);}
	.st2{fill:none;stroke:#F985DE;stroke-width:0.25;stroke-linecap:round;stroke-linejoin:round;}
	.st3{fill:none;stroke:#F985DE;stroke-linecap:round;stroke-linejoin:round;}
	.st4{clip-path:url(#SVGID_4_);}
	.st5{clip-path:url(#SVGID_6_);}
	.st6{clip-path:url(#SVGID_8_);}
	.st7{clip-path:url(#SVGID_10_);}
</style>
<path class="st0" d="M41.3,79.5c-1.9,4.5-5.5,8.1-10,10C29,90.5,26.5,91,24,91h-5.2c-2.5,0-5-0.5-7.3-1.5c-4.5-1.9-8.1-5.5-10-10
	c-1-2.3-1.5-4.8-1.5-7.3V0h7.7v31c3.5-4.2,8.8-6.6,14.3-6.6h2c2.5,0,5,0.5,7.3,1.5c4.5,1.9,8.1,5.5,10,10c1,2.3,1.5,4.8,1.5,7.3
	v28.9C42.9,74.7,42.3,77.2,41.3,79.5z M35.1,42.8c0-1.5-0.3-3-0.9-4.4c-0.6-1.3-1.4-2.5-2.4-3.5c-1-1-2.2-1.9-3.5-2.4
	c-1.4-0.6-2.9-0.9-4.3-0.9h-5.1c-1.5,0-3,0.3-4.3,0.9c-1.3,0.6-2.5,1.4-3.5,2.4s-1.9,2.2-2.4,3.6c-0.6,1.4-0.9,2.9-0.9,4.4v29.8
	c0,1.5,0.3,3,0.9,4.4c1.1,2.7,3.2,4.8,5.9,5.9c1.4,0.6,2.9,0.9,4.3,0.9H24c1.5,0,3-0.3,4.3-0.9c2.7-1.1,4.8-3.2,5.9-5.9
	c0.6-1.4,0.9-2.9,0.9-4.4L35.1,42.8z"/>
<path class="st0" d="M99.6,79.5c-1.9,4.5-5.5,8.1-10,10c-2.3,1-4.8,1.5-7.3,1.5h-5.2c-2.5,0-5-0.5-7.3-1.5c-4.5-1.9-8.1-5.5-10-10
	c-1-2.3-1.5-4.8-1.5-7.3V43.3c0-2.5,0.5-5,1.5-7.3c1.9-4.5,5.5-8.1,10-10c2.3-1,4.8-1.5,7.3-1.5h5.1c2.5,0,5,0.5,7.3,1.5
	c4.5,1.9,8.1,5.5,10,10c1,2.3,1.5,4.8,1.5,7.3v28.9C101,74.7,100.5,77.2,99.6,79.5z M93.3,42.8c0-1.5-0.3-3-0.9-4.4
	c-0.6-1.3-1.4-2.5-2.4-3.5s-2.2-1.8-3.5-2.4c-1.4-0.6-2.9-0.9-4.3-0.9h-5.1c-1.5,0-3,0.3-4.3,0.9c-2.7,1.1-4.8,3.3-5.9,5.9
	c-0.6,1.4-0.9,2.9-0.9,4.4v29.8c0,1.5,0.3,3,0.9,4.4c0.6,1.3,1.4,2.5,2.4,3.5s2.2,1.8,3.5,2.4c1.4,0.6,2.9,0.9,4.3,0.9h5.1
	c1.5,0,3-0.3,4.3-0.9s2.5-1.4,3.5-2.4s1.8-2.2,2.4-3.5c0.6-1.4,0.9-2.9,0.9-4.4V42.8z"/>
<path class="st0" d="M156.7,89.8l-4.3-6.5c-1.7,2.4-4,4.3-6.6,5.7c-2.7,1.4-5.6,2.1-8.6,2.1h-1.9c-2.5,0-5-0.5-7.3-1.5
	c-2.2-0.9-4.3-2.3-6-4s-3.1-3.8-4-6c-1-2.3-1.5-4.8-1.5-7.3V25.7h7.7v47c0,1.5,0.3,3,0.9,4.4c0.6,1.3,1.4,2.5,2.4,3.5
	s2.2,1.8,3.5,2.4c1.4,0.6,2.9,0.9,4.4,0.9h5.1c1.5,0,3-0.3,4.4-0.9c1.3-0.6,2.5-1.4,3.4-2.4c1-1,1.8-2.2,2.4-3.5
	c0.6-1.4,0.9-2.9,0.9-4.4v-47h7.7v64.1L156.7,89.8z"/>
<path class="st0" d="M198,89.8c-2.3,0-4.5-0.4-6.6-1.3c-2-0.8-3.8-2.1-5.4-3.6c-1.5-1.6-2.8-3.4-3.6-5.4c-0.9-2.1-1.4-4.3-1.3-6.6
	V33h-11.5v-7.3H181V10.3l7.7-1.3v16.7H205V33h-16.3v40.3c0,1.2,0.2,2.5,0.7,3.6s1.2,2.1,2,2.9c1.7,1.7,4.1,2.7,6.6,2.7h7v7.3H198z"
	/>
<path class="st0" d="M259.4,89.8l-4.3-6.4c-1.8,2.3-4,4.2-6.6,5.5c-2.7,1.4-5.6,2.1-8.6,2.1h-2c-2.5,0-5-0.5-7.3-1.5
	c-4.5-1.9-8.1-5.5-10-10c-1-2.3-1.5-4.8-1.5-7.3v-0.7c0-2.5,0.5-5,1.5-7.3c1.9-4.5,5.5-8.1,10.1-10c2.3-1,4.8-1.5,7.3-1.4h16.3v-9.9
	c0-1.5-0.3-3-0.9-4.4c-0.6-1.3-1.4-2.5-2.4-3.5s-2.2-1.8-3.5-2.4c-1.4-0.6-2.9-0.9-4.4-0.9h-4.5c-1.5,0-3,0.3-4.4,0.9
	c-2.7,1.1-4.8,3.2-5.9,5.9c-0.6,1.4-0.9,2.9-0.9,4.4v2.3l-7.7-1.3v-0.6c0-2.5,0.5-5,1.5-7.3c1.9-4.5,5.5-8.1,10.1-10
	c2.3-1,4.8-1.5,7.3-1.5h4.5c2.5,0,5,0.5,7.3,1.5c4.5,1.9,8.1,5.5,10,10c1,2.3,1.5,4.8,1.5,7.3v46.5
	C261.9,89.8,259.4,89.8,259.4,89.8z M254.3,58.7H238c-3,0-5.8,1.2-7.9,3.3c-1,1-1.8,2.2-2.4,3.6c-0.6,1.4-0.9,2.9-0.9,4.4v2.7
	c0,1.5,0.3,3,0.9,4.4c0.6,1.3,1.4,2.5,2.4,3.5s2.2,1.8,3.5,2.4c1.4,0.6,2.9,0.9,4.4,0.9h5.1c1.5,0,3-0.3,4.4-0.9
	c2.7-1.1,4.8-3.2,5.9-5.9c0.6-1.4,0.9-2.9,0.9-4.4L254.3,58.7z"/>
<path class="st0" d="M280,89.8V0h7.7v89.8H280z"/>
<path class="st0" d="M347,79.5c-1.9,4.5-5.5,8.1-10,10c-2.3,1-4.8,1.5-7.3,1.5h-5.1c-2.5,0-5-0.5-7.3-1.5c-4.6-1.9-8.2-5.5-10.1-10
	c-1-2.3-1.5-4.8-1.5-7.3V43.3c0-2.5,0.5-5,1.5-7.3c1.9-4.5,5.5-8.1,10-10c2.3-1,4.8-1.5,7.3-1.5h5.1c2.5,0,5,0.5,7.3,1.5
	c4.5,1.9,8.1,5.5,10,10c1,2.3,1.5,4.8,1.5,7.3v15.1h-35.1v14.3c0,1.5,0.3,3,0.9,4.4c0.6,1.3,1.4,2.5,2.4,3.5s2.2,1.8,3.5,2.4
	c1.4,0.6,2.9,0.9,4.4,0.9h5.1c1.5,0,3-0.3,4.4-0.9c1.3-0.6,2.5-1.4,3.5-2.4s1.8-2.2,2.4-3.5c0.6-1.4,0.9-2.9,0.9-4.4v-4.3l7.7,1.3
	v2.6C348.5,74.7,348,77.2,347,79.5z M340.8,42.8c0-1.5-0.3-3-0.9-4.4c-0.6-1.3-1.4-2.5-2.4-3.5s-2.2-1.8-3.5-2.4
	c-1.4-0.6-2.9-0.9-4.4-0.9h-5.1c-1.5,0-3,0.3-4.4,0.9c-1.3,0.6-2.5,1.4-3.5,2.4s-1.8,2.2-2.4,3.5c-0.6,1.4-0.9,2.9-0.9,4.4v9.5h27.4
	L340.8,42.8L340.8,42.8z"/>
<path class="st0" d="M405.2,79.5c-1.9,4.5-5.5,8.1-10,10c-2.3,1-4.8,1.5-7.3,1.5h-5.1c-2.5,0-5-0.5-7.3-1.5c-4.5-1.9-8.1-5.5-10-10
	c-1-2.3-1.5-4.8-1.5-7.3V0h7.7v31c3.5-4.2,8.8-6.7,14.3-6.6h1.9c2.5,0,5,0.5,7.3,1.5c4.5,1.9,8.1,5.5,10,10c1,2.3,1.5,4.8,1.5,7.3
	v28.9C406.7,74.6,406.2,77.2,405.2,79.5z M399,42.8c0-1.5-0.3-3-0.9-4.4c-0.6-1.3-1.4-2.5-2.4-3.5s-2.2-1.8-3.5-2.4
	c-1.4-0.6-2.9-0.9-4.4-0.9h-5.1c-1.5,0-3,0.3-4.4,0.9c-1.3,0.6-2.5,1.4-3.5,2.4s-1.8,2.2-2.4,3.5c-0.6,1.4-0.9,2.9-0.9,4.4v29.8
	c0,1.5,0.3,3,0.9,4.4c1.1,2.7,3.2,4.8,5.9,5.9c1.4,0.6,2.9,0.9,4.4,0.9h5.1c1.5,0,3-0.3,4.4-0.9c2.7-1.1,4.8-3.2,5.9-5.9
	c0.6-1.4,0.9-2.9,0.9-4.4V42.8z"/>
<g>
	<g>
		<g>
			<defs>
				<polyline id="SVGID_1_" points="435.3,82.3 435.4,59.9 456.1,57 				"/>
			</defs>
			<clipPath id="SVGID_2_">
				<use xlink:href="#SVGID_1_"  style="overflow:visible;"/>
			</clipPath>
			<g class="st1">
				<polyline class="st2" points="435.3,82.3 435.4,59.9 456.1,57 				"/>
			</g>
		</g>
		<polyline class="st3" points="435.3,82.3 435.4,59.9 456.1,57 		"/>
	</g>
	<g>
		<g>
			<defs>
				<polygon id="SVGID_3_" points="467.5,63.2 467.4,85.6 446.7,88.5 446.8,66.1 				"/>
			</defs>
			<clipPath id="SVGID_4_">
				<use xlink:href="#SVGID_3_"  style="overflow:visible;"/>
			</clipPath>
			<g class="st4">
				<polygon class="st2" points="467.5,63.2 467.4,85.6 446.7,88.5 446.8,66.1 				"/>
			</g>
		</g>
		<polygon class="st3" points="467.5,63.2 467.4,85.6 446.7,88.5 446.8,66.1 		"/>
	</g>
	<g>
		<g>
			<defs>
				<polyline id="SVGID_5_" points="456.1,57 467.5,63.2 467.4,85.6 				"/>
			</defs>
			<clipPath id="SVGID_6_">
				<use xlink:href="#SVGID_5_"  style="overflow:visible;"/>
			</clipPath>
			<g class="st5">
				<polyline class="st2" points="456.1,57 467.5,63.2 467.4,85.6 				"/>
			</g>
		</g>
		<polyline class="st3" points="456.1,57 467.5,63.2 467.4,85.6 		"/>
	</g>
	<g>
		<polyline class="st3" points="467.4,85.6 446.7,88.5 435.3,82.3 		"/>
	</g>
	<g>
		<g>
			<defs>
				<polygon id="SVGID_7_" points="446.7,88.5 435.3,82.3 435.4,59.9 446.8,66.1 				"/>
			</defs>
			<clipPath id="SVGID_8_">
				<use xlink:href="#SVGID_7_"  style="overflow:visible;"/>
			</clipPath>
			<g class="st6">
				<polygon class="st2" points="446.7,88.5 435.3,82.3 435.4,59.9 446.8,66.1 				"/>
			</g>
		</g>
		<polygon class="st3" points="446.7,88.5 435.3,82.3 435.4,59.9 446.8,66.1 		"/>
	</g>
	<g>
		<g>
			<defs>
				<polygon id="SVGID_9_" points="446.8,66.1 435.4,59.9 456.1,57 467.5,63.2 				"/>
			</defs>
			<clipPath id="SVGID_10_">
				<use xlink:href="#SVGID_9_"  style="overflow:visible;"/>
			</clipPath>
			<g class="st7">
				<polygon class="st2" points="446.8,66.1 435.4,59.9 456.1,57 467.5,63.2 				"/>
			</g>
		</g>
		<polygon class="st3" points="446.8,66.1 435.4,59.9 456.1,57 467.5,63.2 		"/>
	</g>
</g>
</svg>
